Coordinates
version=1
nRows=26
nColumns=22
inDegrees=yes

Units are S.I. units (second, meters, Newtons, ...)
If the header above contains a line with 'inDegrees', this indicates whether rotational values are in degrees (yes) or radians (no).

endheader
time	pelvis_tilt	pelvis_list	pelvis_rotation	pelvis_tx	pelvis_ty	pelvis_tz	hip_flexion_r	hip_adduction_r	hip_rotation_r	knee_angle_r	ankle_angle_r	subtalar_angle_r	hip_flexion_l	hip_adduction_l	hip_rotation_l	knee_angle_l	ankle_angle_l	subtalar_angle_l	lumbar_extension	lumbar_bending	lumbar_rotation
      3.99000000	     -9.83820367	      5.23253720	     -9.06943155	      0.26773777	      0.97152980	      0.33523497	     24.78497717	     -9.19405449	     -0.33479170	    -57.42402233	     18.47690378	      4.98383938	     22.81078525	      9.72257957	     -4.46158194	    -18.74059776	     14.21129395	     -5.48063422	      2.08299371	     -4.18567626	      5.77248996
      4.00000000	     -9.80272850	      5.31035099	     -8.84151610	      0.27181877	      0.97173837	      0.33492498	     25.52021705	     -9.59402330	     -0.39946683	    -56.90802252	     18.83077996	      3.42634254	     22.37774418	      9.95672489	     -4.24920101	    -18.47133970	     14.32743738	     -5.56419850	      1.94550084	     -4.26766288	      5.48917394
      4.01000000	     -9.78428919	      5.34816826	     -8.59482176	      0.27579439	      0.97192689	      0.33467021	     26.23467837	     -9.89862026	     -0.44645930	    -56.27070508	     19.17454660	      2.16545112	     21.99939713	     10.14228963	     -4.01221797	    -18.27910000	     14.46315922	     -5.62347601	      1.80785905	     -4.31244355	      5.19479829
      4.02000000	     -9.77955170	      5.34896696	     -8.33510652	      0.27965712	      0.97209476	      0.33447535	     26.93335409	    -10.10991840	     -0.46992296	    -55.53200023	     19.49137585	      1.16590435	     21.67017756	     10.28146559	     -3.75611009	    -18.15479739	     14.61507157	     -5.65878777	      1.66635927	     -4.32087584	      4.89052728
      4.03000000	     -9.78511991	      5.31823041	     -8.06679730	      0.28341525	      0.97224438	      0.33434443	     27.61588281	    -10.23181892	     -0.46335133	    -54.69957293	     19.77822437	      0.34733116	     21.38359335	     10.37853664	     -3.49978808	    -18.09350959	     14.78924001	     -5.67490840	      1.51899969	     -4.29920109	      4.58090546
      4.04000000	     -9.79696761	      5.26331913	     -7.80245512	      0.28707679	      0.97238523	      0.33429782	     28.28477238	    -10.26862029	     -0.41001422	    -53.78763535	     20.02001104	     -0.29220013	     21.13100782	     10.43793551	     -3.24692518	    -18.08255659	     14.97755707	     -5.67203045	      1.36582852	     -4.25626475	      4.27715479
      4.05000000	     -9.80930637	      5.18920555	     -7.53343250	      0.29065904	      0.97251684	      0.33431126	     28.93574024	    -10.24245143	     -0.33020571	    -52.81470627	     20.24843699	     -0.66302151	     20.90415706	     10.46990247	     -2.99100150	    -18.11893155	     15.18047896	     -5.65493970	      1.20183078	     -4.19657413	      3.95737349
      4.06000000	     -9.82801685	      5.09390606	     -7.29998176	      0.29418626	      0.97265125	      0.33445886	     29.58077878	    -10.12581875	     -0.18381687	    -51.78161454	     20.39971970	     -0.99793173	     20.68794933	     10.45871179	     -2.75496283	    -18.16241447	     15.39748124	     -5.63143124	      1.04397933	     -4.11580721	      3.69462230
      4.07000000	     -9.84208757	      4.99868527	     -7.09950670	      0.29767950	      0.97279039	      0.33471313	     30.21893456	     -9.96085499	      0.00918608	    -50.71398162	     20.50626864	     -1.21169847	     20.47124766	     10.43113466	     -2.54232336	    -18.20799976	     15.60932496	     -5.60492235	      0.88422869	     -4.03797237	      3.46185611
      4.08000000	     -9.85153939	      4.89857708	     -6.91990050	      0.30114421	      0.97293006	      0.33503713	     30.84695973	     -9.75503731	      0.23080812	    -49.62715243	     20.58520874	     -1.32019118	     20.25529241	     10.38745631	     -2.34734514	    -18.25973628	     15.82552179	     -5.58196143	      0.71945448	     -3.95363608	      3.25722166
      4.09000000	     -9.85371489	      4.81215968	     -6.78141540	      0.30460989	      0.97307089	      0.33544666	     31.47224154	     -9.53035858	      0.47879555	    -48.53545430	     20.65045939	     -1.34517005	     20.02370748	     10.34550834	     -2.15909812	    -18.28796494	     16.03028423	     -5.56824613	      0.55768921	     -3.88450875	      3.10846184
      4.10000000	     -9.86006270	      4.68350990	     -6.63508172	      0.30803206	      0.97319938	      0.33586972	     32.08012020	     -9.25826431	      0.67365461	    -47.43722516	     20.64739918	     -1.34805083	     19.82815537	     10.25458420	     -1.99820904	    -18.38561860	     16.26799883	     -5.56109152	      0.38941380	     -3.75964700	      2.91785369
      4.11000000	     -9.86730838	      4.57006785	     -6.51717579	      0.31146755	      0.97330793	      0.33633002	     32.69357860	     -8.98907356	      0.85331034	    -46.35621204	     20.62990280	     -1.32693642	     19.62756960	     10.17347727	     -1.83146250	    -18.46588615	     16.49120658	     -5.56476883	      0.23466757	     -3.64797993	      2.77763045
      4.12000000	     -9.87465546	      4.45570599	     -6.41538853	      0.31490976	      0.97339422	      0.33678984	     33.30454308	     -8.71993797	      0.98409664	    -45.29584026	     20.57775897	     -1.29855005	     19.43573319	     10.08881790	     -1.67230364	    -18.56212707	     16.71447353	     -5.58304365	      0.08594000	     -3.52425692	      2.65780250
      4.13000000	     -9.88351104	      4.34200067	     -6.32857918	      0.31837104	      0.97345669	      0.33727013	     33.91394029	     -8.45194107	      1.05919805	    -44.26229616	     20.48905266	     -1.27902639	     19.24918124	     10.00119691	     -1.51608296	    -18.66639078	     16.93766174	     -5.61481442	     -0.05255050	     -3.39489249	      2.55710314
      4.14000000	     -9.88859276	      4.23276835	     -6.25935660	      0.32187317	      0.97350299	      0.33778555	     34.51541158	     -8.18810666	      1.07701040	    -43.25886007	     20.35897156	     -1.27535098	     19.05890312	      9.91327159	     -1.37345992	    -18.77362835	     17.16128063	     -5.65749934	     -0.18449364	     -3.26708089	      2.47638378
      4.15000000	     -9.88619407	      4.12879295	     -6.21019369	      0.32542866	      0.97353947	      0.33833443	     35.10444916	     -7.92747071	      1.03976055	    -42.28727197	     20.18585935	     -1.28582388	     18.85608343	      9.82640909	     -1.24553311	    -18.87506825	     17.38807483	     -5.70672907	     -0.31313229	     -3.13886679	      2.41817957
      4.16000000	     -9.87423222	      4.03222868	     -6.17864161	      0.32904619	      0.97356948	      0.33893181	     35.67623928	     -7.66998124	      0.95122540	    -41.34673975	     19.97573432	     -1.30493896	     18.63588901	      9.74216947	     -1.13188137	    -18.96710568	     17.61854352	     -5.75902775	     -0.43927251	     -3.01800912	      2.37769445
      4.17000000	     -9.85298238	      3.94164450	     -6.16152367	      0.33273177	      0.97359620	      0.33958351	     36.22681281	     -7.41207259	      0.81647048	    -40.43398653	     19.72931845	     -1.31326864	     18.39575236	      9.65844719	     -1.03579153	    -19.04543538	     17.85544757	     -5.80708743	     -0.56280588	     -2.90631108	      2.35111562
      4.18000000	     -9.82326299	      3.86360289	     -6.16165357	      0.33647416	      0.97361170	      0.34027870	     36.75946001	     -7.15633236	      0.65001276	    -39.54922234	     19.45118927	     -1.29099820	     18.13995886	      9.58402938	     -0.94601593	    -19.11400299	     18.09632529	     -5.84363909	     -0.68442100	     -2.80647794	      2.34447007
      4.19000000	     -9.79090140	      3.79417306	     -6.16900400	      0.34028282	      0.97360896	      0.34102060	     37.27233759	     -6.90077337	      0.45214902	    -38.68534983	     19.16599963	     -1.23938159	     17.87211617	      9.51311340	     -0.87106808	    -19.16915632	     18.34372561	     -5.87313958	     -0.79547011	     -2.71882688	      2.33669448
      4.20000000	     -9.75496885	      3.70823540	     -6.17562580	      0.34416500	      0.97359561	      0.34179613	     37.74927452	     -6.62783455	      0.20122229	    -37.82684332	     18.88969912	     -1.14583581	     17.59887477	      9.41906895	     -0.82749971	    -19.23391983	     18.60563778	     -5.90473651	     -0.90088034	     -2.60976504	      2.30231902
      4.21000000	     -9.71839309	      3.63802505	     -6.18954616	      0.34809133	      0.97355569	      0.34263970	     38.20843175	     -6.35282683	     -0.04656124	    -36.98347705	     18.61396235	     -0.99807626	     17.31948388	      9.33599098	     -0.78112830	    -19.28998819	     18.86851276	     -5.92350976	     -0.99688555	     -2.52955900	      2.28211700
      4.22000000	     -9.68552195	      3.58990604	     -6.21532660	      0.35205292	      0.97347164	      0.34350457	     38.65684199	     -6.08146318	     -0.27260208	    -36.15179506	     18.32927693	     -0.82919922	     17.04275199	      9.27448499	     -0.72418217	    -19.34220783	     19.13478196	     -5.92965312	     -1.07760239	     -2.47128494	      2.28123862
      4.23000000	     -9.65621902	      3.53314493	     -6.23293296	      0.35607951	      0.97335670	      0.34439895	     39.07241061	     -5.79895668	     -0.51255872	    -35.31578866	     18.06627202	     -0.61416243	     16.76936996	      9.19852339	     -0.69407844	    -19.40300218	     19.41258928	     -5.92819494	     -1.14540007	     -2.40463453	      2.25112995
      4.24000000	     -9.62302169	      3.46501697	     -6.23278079	      0.36016328	      0.97321590	      0.34529396	     39.44712874	     -5.51408020	     -0.76622347	    -34.48033976	     17.84216570	     -0.29290406	     16.50039727	      9.10846054	     -0.69430920	    -19.48850546	     19.68978307	     -5.90771062	     -1.21186267	     -2.32624738	      2.17582120
